<svg width="32" height="32" viewBox="0 0 32 32" xmlns="http://www.w3.org/2000/svg">
  <rect width="32" height="32" rx="6" fill="#0d6efd"/>
  <g fill="none" stroke="#ffffff" stroke-width="1.4" stroke-linecap="round">
    <path d="M16 7.2c-4.86 0-8.6 3.86-8.6 8.4 0 1.9.3 3.35.75 4.7"/>
    <path d="M16 7.2c4.86 0 8.6 3.86 8.6 8.4 0 1.02-.06 1.9-.18 2.7"/>
    <path d="M12.2 24.6c-1.1-1.55-1.85-3.4-2.15-5.3-.18-1.1-.25-2.15-.25-3.1 0-3.5 2.8-6.2 6.2-6.2s6.2 2.7 6.2 6.2c0 .55-.02 1.05-.06 1.5"/>
    <path d="M13.9 25.6c-1.35-1.8-2.25-3.9-2.6-6.1-.14-.9-.2-1.75-.2-2.5 0-2.7 2.2-4.7 4.9-4.7s4.9 2 4.9 4.7c0 1.7-.2 2.9-.5 3.9"/>
    <path d="M16 12.3c-1.8 0-3.3 1.4-3.3 3.4 0 3.1 1.1 5.8 2.9 7.9"/>
    <path d="M19.2 22.4c-.75-1.15-1.3-2.5-1.55-3.95-.1-.6-.15-1.15-.15-1.7 0-1.05-.65-1.7-1.5-1.7"/>
  </g>
</svg>
